<?xml version="1.0" standalone="no"?>
<!DOCTYPE svg PUBLIC "-//W3C//DTD SVG 20010904//EN"
 "http://www.w3.org/TR/2001/REC-SVG-20010904/DTD/svg10.dtd">
<svg version="1.0" xmlns="http://www.w3.org/2000/svg"
 width="512.000000pt" height="512.000000pt" viewBox="0 0 512.000000 512.000000"
 preserveAspectRatio="xMidYMid meet">

<g transform="translate(0.000000,512.000000) scale(0.100000,-0.100000)"
fill="#00538F" stroke="none">
<path d="M1875 4658 c500 -905 733 -1811 644 -2498 -20 -156 -53 -291 -114
-475 -72 -214 -85 -278 -85 -415 0 -154 37 -265 115 -349 60 -65 113 -95 211
-122 252 -69 434 60 515 366 32 121 30 297 -5 490 -166 916 -508 1834 -950
2549 -125 202 -357 536 -372 536 -2 0 16 -37 41 -82z"/>
<path d="M278 2129 c-16 -9 -18 -33 -18 -268 0 -293 -6 -272 93 -324 118 -63
203 -58 319 19 81 54 112 64 199 64 84 0 143 -18 230 -71 115 -69 182 -66 324
17 44 26 98 57 121 70 127 74 284 31 345 -93 22 -44 24 -64 30 -263 8 -254 23
-328 101 -490 44 -92 61 -115 142 -195 128 -127 243 -185 441 -219 279 -49
512 26 700 225 111 117 201 277 240 425 17 66 41 239 51 367 8 113 24 132 91
106 47 -18 146 -13 199 10 25 12 70 46 99 76 67 69 91 71 219 16 129 -55 197
-73 280 -73 84 1 147 21 256 86 118 69 111 50 108 292 l-3 209 -708 3 c-786 2
-751 5 -784 -64 -16 -32 -16 -43 0 -152 43 -302 46 -496 13 -714 -47 -298
-250 -550 -484 -599 -92 -19 -242 -7 -343 28 -271 93 -399 307 -399 668 0 208
31 364 117 598 53 147 55 177 9 223 l-34 34 -968 0 c-640 -1 -975 -4 -986 -11z"/>
<path d="M1525 1375 c-155 -54 -130 -290 32 -312 114 -15 206 85 182 196 -11
49 -38 83 -89 109 -51 25 -70 27 -125 7z"/>
<path d="M4600 1368 c-115 -59 -124 -203 -17 -282 21 -16 43 -21 87 -21 66 0
99 18 138 76 20 28 23 44 20 92 -6 87 -55 139 -143 152 -31 5 -51 1 -85 -17z"/>
<path d="M3916 1338 c-101 -60 -103 -217 -4 -278 49 -29 133 -27 179 4 93 63
91 199 -4 270 -41 30 -123 32 -171 4z"/>
<path d="M700 1202 c-53 -26 -80 -74 -80 -142 0 -97 62 -160 159 -160 95 0
168 78 159 172 -12 117 -133 183 -238 130z"/>
<path d="M1273 820 c-103 -53 -120 -185 -34 -263 82 -74 208 -51 252 46 23 53
24 91 0 143 -36 80 -138 114 -218 74z"/>
<path d="M4453 749 c-69 -20 -123 -110 -109 -183 14 -75 86 -136 161 -136 47
0 112 35 134 72 44 71 39 138 -16 198 -47 53 -101 69 -170 49z"/>
<path d="M3686 569 c-56 -44 -70 -110 -36 -166 67 -111 232 -67 232 62 0 76
-52 125 -130 125 -25 0 -49 -8 -66 -21z"/>
</g>
</svg>
