<?xml version="1.0" standalone="no"?>
<!DOCTYPE svg PUBLIC "-//W3C//DTD SVG 20010904//EN"
 "http://www.w3.org/TR/2001/REC-SVG-20010904/DTD/svg10.dtd">
<svg version="1.0" xmlns="http://www.w3.org/2000/svg"
 width="256.000000pt" height="256.000000pt" viewBox="0 0 256.000000 256.000000"
 preserveAspectRatio="xMidYMid meet">

<g transform="translate(0.000000,256.000000) scale(0.100000,-0.100000)"
fill="#00538F" stroke="none">
<path d="M823 2501 c-60 -37 -66 -63 -60 -255 6 -222 18 -262 152 -475 52 -83
76 -162 81 -276 5 -97 4 -99 -12 -71 -9 16 -38 102 -65 192 -56 191 -66 212
-116 253 -87 72 -213 65 -289 -16 -54 -57 -136 -273 -170 -448 -12 -63 -18
-140 -18 -255 -1 -250 32 -385 154 -637 82 -171 104 -201 170 -237 104 -57
222 -42 306 38 l44 43 0 -37 c0 -117 82 -229 194 -264 173 -55 347 62 363 243
l5 56 43 -41 c103 -99 262 -96 365 8 41 41 166 293 203 410 49 153 60 230 61
413 0 124 -5 194 -18 260 -36 182 -117 394 -172 449 -81 81 -200 87 -287 15
-50 -41 -61 -64 -116 -253 -26 -88 -55 -174 -64 -191 l-16 -30 -1 66 c0 130
32 234 111 354 101 153 129 255 129 472 0 119 -3 142 -20 170 -38 62 -114 79
-177 38 -36 -24 -49 -65 -63 -192 l-13 -112 -42 24 c-23 14 -54 25 -69 25 -41
0 -90 -24 -114 -56 l-22 -29 -22 29 c-24 32 -73 56 -114 56 -15 0 -46 -11 -69
-25 l-42 -24 -13 112 c-7 62 -18 126 -25 144 -26 63 -114 91 -172 54z m90 -75
c9 -10 19 -58 27 -133 18 -169 23 -195 43 -207 13 -8 23 -7 39 3 108 68 118
73 141 67 13 -3 36 -24 51 -46 25 -38 26 -45 26 -175 l0 -135 40 0 40 0 0 136
c0 123 2 139 22 167 47 69 63 71 147 17 66 -43 82 -47 99 -27 6 6 18 77 27
157 9 80 18 153 21 162 7 23 38 32 64 18 19 -10 20 -20 20 -144 0 -203 -22
-286 -112 -423 -64 -96 -103 -187 -118 -274 -17 -95 -21 -98 -68 -51 -82 82
-202 82 -284 0 -45 -45 -53 -42 -63 22 -19 115 -52 196 -124 305 -53 82 -87
159 -102 239 -14 73 -12 309 3 324 16 16 43 15 61 -2z m-188 -600 c18 -8 41
-26 51 -41 9 -14 41 -104 69 -200 29 -95 64 -194 80 -221 158 -269 552 -269
710 1 16 26 52 126 81 221 28 95 59 185 68 200 10 14 33 32 51 40 110 46 176
-17 249 -236 55 -166 70 -263 70 -445 0 -239 -35 -378 -159 -625 -67 -133 -88
-160 -147 -185 -51 -21 -93 -19 -145 6 -56 27 -69 47 -154 231 -39 84 -82 168
-95 186 -33 42 -93 72 -160 79 -45 5 -62 1 -109 -21 -30 -15 -66 -42 -79 -59
-14 -18 -56 -101 -95 -185 -85 -184 -98 -204 -154 -231 -52 -25 -94 -27 -145
-6 -59 25 -80 52 -147 185 -124 247 -159 386 -159 625 0 182 15 279 70 445 73
219 139 282 249 236z m636 -342 c34 -33 36 -49 9 -64 -53 -29 -184 -18 -197
16 -6 17 31 61 62 75 35 15 95 3 126 -27z m-81 -159 c67 0 85 4 138 32 l62 32
0 -44 c0 -43 -1 -44 -57 -72 -50 -24 -70 -28 -143 -28 -73 0 -93 4 -142 28
-57 28 -58 29 -58 72 l0 44 62 -32 c53 -28 71 -32 138 -32z m69 -586 c21 -11
42 -29 49 -40 18 -29 -35 -53 -118 -53 -82 0 -136 24 -118 53 18 29 79 61 117
61 18 0 50 -9 70 -21z m-69 -174 c55 0 87 6 122 22 l46 21 16 -42 c21 -55 20
-74 -6 -111 -78 -114 -230 -126 -330 -25 -53 52 -57 70 -32 136 l16 42 46 -21
c35 -16 67 -22 122 -22z m0 -280 c67 0 85 4 140 32 l63 33 -6 -52 c-8 -62 -42
-117 -94 -149 -54 -34 -152 -34 -206 0 -52 32 -86 87 -94 149 l-6 52 63 -33
c55 -28 73 -32 140 -32z"/>
<path d="M1840 1513 c-29 -11 -69 -56 -75 -84 -4 -16 -4 -42 0 -59 l6 -29 34
16 c23 11 35 24 37 41 4 33 32 51 56 36 13 -9 25 -7 50 4 38 19 39 22 8 51
-24 23 -87 36 -116 24z"/>
<path d="M605 1391 c-44 -19 -70 -60 -70 -111 0 -27 3 -51 6 -54 13 -13 68 29
71 53 4 32 32 50 56 35 13 -9 25 -7 50 4 38 19 39 22 8 51 -26 25 -89 36 -121
22z"/>
<path d="M1800 1153 c-29 -11 -69 -56 -75 -84 -4 -16 -4 -42 0 -59 l6 -29 35
16 c23 11 34 24 34 38 0 44 50 61 72 25 9 -14 24 -20 51 -20 38 0 39 1 32 28
-10 43 -56 83 -101 87 -21 3 -46 2 -54 -2z"/>
<path d="M1138 1042 c-15 -9 -28 -27 -30 -41 -4 -32 -32 -50 -55 -35 -14 9
-26 7 -50 -4 -18 -9 -33 -19 -33 -22 0 -4 12 -17 26 -31 39 -36 112 -34 153 5
34 32 46 71 36 116 -7 34 -10 34 -47 12z"/>
<path d="M718 794 c-16 -5 -16 -8 -1 -40 11 -23 24 -34 38 -34 44 0 61 -50 25
-72 -14 -9 -20 -24 -20 -51 0 -38 1 -39 28 -32 15 3 41 20 57 36 25 25 30 37
30 79 0 42 -5 54 -31 81 -31 30 -85 45 -126 33z"/>
<path d="M1685 711 c-10 -46 2 -85 36 -117 41 -39 114 -41 153 -5 14 14 26 27
26 31 0 3 -15 13 -32 22 -25 11 -37 13 -50 4 -24 -15 -52 3 -56 36 -2 16 -13
30 -30 39 -15 7 -30 15 -34 17 -3 2 -9 -11 -13 -27z"/>
</g>
</svg>
