<svg xmlns="http://www.w3.org/2000/svg" viewBox="0 0 466.79 320.67"><defs><style>.cls-1{fill:#42b0ff;}</style></defs><g id="VETOR"><path class="cls-1" d="M968.06,457.24a6.21,6.21,0,0,0-1.68-3.78,5.73,5.73,0,0,0-4.38-1.62,8,8,0,0,0-2.22.6,20.05,20.05,0,0,0-2.52,1.2,28.11,28.11,0,0,1-3.66,1.44c-8.75,3.07-15.9,4.74-15.9,4.74A186.8,186.8,0,0,1,908.9,464a191.92,191.92,0,0,1-29.07-1c-5.94-.67-11-1.57-13.89-2.11-5.18-.94-7.57-1.56-9.06-2,0,0-4.35-1.2-8.42-2.83-1.09-.44-2.52-1-3.72-1.6l-1.51-.72-1.23-.61a22.17,22.17,0,0,0-3.16-1.39,5.8,5.8,0,0,0-5.31,1.62c-2.39,2.5-1,6.77-.81,7.46,1.41,4.23,4.91,5.13,11.2,9.59A81.72,81.72,0,0,1,856.64,482a110.19,110.19,0,0,1,9.84,12.24c6.54,8.95,9.81,13.42,13,19.68a117.88,117.88,0,0,1,8.88,25.44c1.3,5.22,3.23,10.29,4.08,15.6a23.83,23.83,0,0,0,1.44,5c1,2.8,1.62,3.44,2.16,3.84a6,6,0,0,0,4.56.72,7.85,7.85,0,0,0,4.32-2.4c2.43-2.64,2.39-6.38,2.4-7.2.1-8.49,9.73-33.3,16.32-46.08,0,0,11.14-21.6,30.75-37.64.95-.78,5.1-4,7.56-5.7,1.3-.9,2.62-1.77,2.62-1.77l1.38-.89.89-.56C967.94,461.52,968.33,459.13,968.06,457.24Zm-31.49,19.42-.48.3-.76.49s-.72.47-1.43,1c-1.35.94-3.61,2.7-4.13,3.12A73.64,73.64,0,0,0,913,502.1c-3.6,7-8.86,20.55-8.92,25.19a5.9,5.9,0,0,1-1.31,3.94,4.32,4.32,0,0,1-2.36,1.31,3.23,3.23,0,0,1-2.49-.4c-.3-.21-.63-.56-1.19-2.09a13,13,0,0,1-.78-2.76c-.47-2.9-1.52-5.67-2.23-8.53a64.36,64.36,0,0,0-4.86-13.9c-1.72-3.42-3.51-5.87-7.08-10.76a60.27,60.27,0,0,0-5.38-6.69,45,45,0,0,0-7-6.29c-3.44-2.44-5.35-2.94-6.13-5.24-.12-.38-.85-2.72.45-4.09a3.19,3.19,0,0,1,2.9-.88,12.38,12.38,0,0,1,1.73.76l.67.33.83.4c.65.3,1.44.63,2,.87,2.22.89,4.6,1.55,4.6,1.55.82.22,2.12.56,5,1.08,1.6.29,4.34.78,7.59,1.15a103.27,103.27,0,0,0,15.89.52,101.35,101.35,0,0,0,15.74-2.26s3.9-.91,8.69-2.59a15,15,0,0,0,2-.79,10.66,10.66,0,0,1,1.38-.65A4.24,4.24,0,0,1,934,471a3.13,3.13,0,0,1,2.39.88,3.37,3.37,0,0,1,.92,2.07C937.41,474.94,937.19,476.24,936.57,476.66Z" transform="translate(-666.75 -405.46)"/><path class="cls-1" d="M1062.4,475.48c-43.14-10.23-51.24,53.46-9,58.68C1089.42,538,1096.08,480.37,1062.4,475.48Zm-8.4,46.3c-26.11-3.22-21.1-42.6,5.56-36.27C1080.38,488.53,1076.26,524.17,1054,521.78Z" transform="translate(-666.75 -405.46)"/><path class="cls-1" d="M753.66,475.6c-43.14-10.23-51.24,53.46-9,58.68C780.68,538.15,787.34,480.49,753.66,475.6Zm-8.4,46.3c-26.11-3.22-21.1-42.6,5.56-36.27C771.64,488.65,767.52,524.29,745.26,521.9Z" transform="translate(-666.75 -405.46)"/><path class="cls-1" d="M803.6,455.32c-13.08-4.18-19.62-6.27-23.76-8.64-15.21-8.72-14.67-11.62-24.48-16.92-5.65-3.05-19.66-10.62-37.08-7.92-4.94.77-21.09,4.06-31.32,18.36-2.53,3.54-8.29,11.59-7.56,23a34,34,0,0,0,10.08,21.6,36.3,36.3,0,0,0,15.91,9c3.56,1,6.12,1.75,9.65,1.5,4-.28,5.55-1.54,7.2-.44,2.3,1.53,2.75,6.34.72,9.36a7.89,7.89,0,0,1-4,2.88c-4.26,1.61-8.33.36-11.88-.72-17.59-5.33-16.41-4.48-18-5.4-7.59-4.38-11.49-10.45-14-14.4a47.44,47.44,0,0,1-8.28-24.12,46.66,46.66,0,0,1,8.64-28.8,50.47,50.47,0,0,1,14.4-13.32,62.19,62.19,0,0,1,18-7.92c7.45-2.13,20.33-5.82,35.28-1.8a68.34,68.34,0,0,1,23.4,11.88c.9.72,3.75,3.09,7.92,6.12a103.48,103.48,0,0,0,9.72,6.48,55.65,55.65,0,0,0,9.36,4.68A46.56,46.56,0,0,0,805,442.72c4.65.53,5.75-.11,7.2,1.08,3.06,2.52,3.14,9.5,0,11.88C810.07,457.32,806.87,456.37,803.6,455.32Z" transform="translate(-666.75 -405.46)"/><path class="cls-1" d="M996.69,455.32c13.08-4.18,19.62-6.27,23.76-8.64,15.21-8.72,14.68-11.62,24.48-16.92,5.65-3.05,19.67-10.62,37.08-7.92,4.94.77,21.1,4.06,31.32,18.36,2.54,3.54,8.29,11.59,7.56,23a34,34,0,0,1-10.08,21.6,36.24,36.24,0,0,1-15.91,9c-3.55,1-6.11,1.75-9.64,1.5-4-.28-5.56-1.54-7.21-.44-2.29,1.53-2.75,6.34-.72,9.36a8,8,0,0,0,4,2.88c4.26,1.61,8.34.36,11.88-.72,17.6-5.33,16.42-4.48,18-5.4,7.59-4.38,11.5-10.45,14-14.4a47.25,47.25,0,0,0,8.28-24.12,46.53,46.53,0,0,0-8.64-28.8,50.34,50.34,0,0,0-14.4-13.32,62,62,0,0,0-18-7.92c-7.45-2.13-20.33-5.82-35.28-1.8a68.43,68.43,0,0,0-23.4,11.88c-.89.72-3.75,3.09-7.92,6.12a102.18,102.18,0,0,1-9.72,6.48,55.28,55.28,0,0,1-9.36,4.68,46.31,46.31,0,0,1-11.52,2.88c-4.65.53-5.75-.11-7.2,1.08-3.06,2.52-3.14,9.5,0,11.88C990.23,457.32,993.42,456.37,996.69,455.32Z" transform="translate(-666.75 -405.46)"/><path class="cls-1" d="M1000.52,450.28c-.41-1.72-2.79-1.85-6.12-3.6-4.61-2.43-6.74-5.71-8.64-7.92-5.9-6.87-18.26-13.54-25.2-17.28a122.08,122.08,0,0,0-105.12-7.56s-22,8.1-40.68,23.76c-1.6,1.34-4,3.6-5.8,5.3-6.7,6.31-7.13,7.39-7.28,8.26-.63,3.62,3,6.3,7.25,11.33.79.93,4,6.28,10.51,17,8.85,14.63,15.62,25.81,23.52,41.28,2.57,5,8,15.84,13.63,29,1.43,3.32.57,1.44,4.51,10.89,5.16,12.35,6.07,14.25,6.82,18.2,1,5.42,2.07,11-1,15.36a23.5,23.5,0,0,1-6.72,6.24c-2.59,1.59-4.57,2.08-5.76,4.32a9.46,9.46,0,0,0-.81,4.55c0,1.48.12,2.63,1.05,6.85.84,3.82,1,4.32,1.44,6.36.66,3.26.93,5.63,1.08,6.84,1.21,9.67,5.26,25.13,8.64,46.92.56,3.6,1.54,10.26,3.6,19.08,1.55,6.66,2.74,10.36,5,14.4a32.37,32.37,0,0,0,7.92,9.72,28.46,28.46,0,0,0,11.16,5.76,29.33,29.33,0,0,0,20.16-2.52,30.75,30.75,0,0,0,13.32-13.68,38.51,38.51,0,0,0,2.88-8.28,125.4,125.4,0,0,0,3.6-20.88c.86-7.31,1.06-4.14,4.68-23.4,2.06-11,4.3-24.22,5.76-31.68.78-4,1.61-8,1.61-8,.51-2.47.77-3.71.86-4.09.79-3.33,1.17-3.94,1.13-5.23a7.14,7.14,0,0,0-2.16-5c-1.52-1.34-2.79-.88-5-1.8a14.16,14.16,0,0,1-5.4-4.68c-3.4-4.64-2-11.53-1.08-15.48,4.74-21.29,7.56-27.36,7.56-27.36a655.16,655.16,0,0,1,35.64-66.6c1-1.67,5.26-8.41,9.6-15.19,2.48-3.88,4.89-7.59,5.09-7.9,2.13-3.28,3.2-4.93,3.38-5.18C999.06,452.89,1000.91,451.91,1000.52,450.28ZM973,468.52c-1.52,2-2.68,3.18-4.64,6.1a81.52,81.52,0,0,0-4.29,7.3c-2.66,4.95-4.43,8.77-4.47,8.86-4,8.74-11.79,21.85-14.92,27.42a220.11,220.11,0,0,0-16.56,38.16c-.42.93-1,2.24-1.68,3.84a80.56,80.56,0,0,0-4.8,13.92,62.9,62.9,0,0,0-1.44,12.24c-.1,4.5-.16,7.43,1,11.28a25.75,25.75,0,0,0,5,9.36,13.77,13.77,0,0,0,2.64,2.4c2.21,1.5,3.16,1.1,3.91,2.16.61.88.47,1.89-.57,6.48q-.54,2.36-1.17,5c-.34,2.31-.85,5.88-1.47,10.26-1.7,12-1.88,13.73-2.76,19.58-1,6.66-1.68,11-2.86,17.12-1.62,8.32-2.23,9.68-3.48,17.16-1.18,7.06-.86,7.18-1.68,9.6-1.14,3.35-3.57,10.47-10.56,13.68a19,19,0,0,1-13,.72,16.23,16.23,0,0,1-6.24-3.11c-1.43-1.19-3.2-3.12-5.36-8.52a60.71,60.71,0,0,1-3.41-12.61c-1.45-8-1-8.41-2.17-15.18-1.43-8.28-2.28-8.64-3.7-17.22-1-6.07-.47-5.24-1.63-12.28-1.43-8.73-2.25-10-2.69-15.08a24.23,24.23,0,0,0-1-6,39.09,39.09,0,0,1-1.44-4.56c-.44-2-.65-3-.24-4.08s1.28-1.56,3.36-3.12a51,51,0,0,0,4.08-3.36c2.08-2,2.73-4.31,3.68-7.7a31.6,31.6,0,0,0,.65-13.45c-.11-.76-.08-.41-.33-1.9-1.49-9.07-.65-11-2.32-15.11-.58-1.45-.91-1.78-1.68-3.84s-1-3.24-1.68-5.52c-.5-1.66-1-2.95-1.92-5.52-4.62-12.55-9.6-23.28-9.6-23.28-5.87-12.66-11.52-22.46-17.52-32.88-9.31-16.16-14-24.24-15.84-26.64-6-7.62-10.08-10.94-9.36-15.84.63-4.31,5.55-7.41,15.36-13.44a166.21,166.21,0,0,1,21.36-11c8.69-3.78,13.85-6,21.36-7.68A82.8,82.8,0,0,1,897,420.28a113.06,113.06,0,0,1,33.12,3.84,121.08,121.08,0,0,1,25.44,10.32,108,108,0,0,1,14.88,9.36c9,6.34,9.84,8.27,10.08,9.84C981.16,458,977.64,462.56,973,468.52Z" transform="translate(-666.75 -405.46)"/><path class="cls-1" d="M806.48,556.84" transform="translate(-666.75 -405.46)"/></g></svg>